<svg width="128" height="128" viewBox="0 0 128 128" fill="none" xmlns="http://www.w3.org/2000/svg">
<g clip-path="url(#clip0_201_10)">
<path d="M104 0H24C10.7452 0 0 10.7452 0 24V104C0 117.255 10.7452 128 24 128H104C117.255 128 128 117.255 128 104V24C128 10.7452 117.255 0 104 0Z" fill="url(#paint0_linear_201_10)"/>
<path d="M74.875 40.75V86.25C74.875 88.4998 75.5421 90.699 76.792 92.5696C78.0419 94.4402 79.8185 95.8982 81.897 96.7591C83.9755 97.6201 86.2626 97.8453 88.4692 97.4064C90.6757 96.9675 92.7025 95.8842 94.2934 94.2934C95.8842 92.7025 96.9675 90.6757 97.4064 88.4692C97.8453 86.2626 97.6201 83.9755 96.7591 81.897C95.8982 79.8185 94.4402 78.0419 92.5696 76.792C90.699 75.5421 88.4998 74.875 86.25 74.875H40.75C38.5002 74.875 36.301 75.5421 34.4304 76.792C32.5598 78.0419 31.1018 79.8185 30.2409 81.897C29.3799 83.9755 29.1547 86.2626 29.5936 88.4692C30.0325 90.6757 31.1158 92.7025 32.7067 94.2934C34.2975 95.8842 36.3243 96.9675 38.5309 97.4064C40.7374 97.8453 43.0245 97.6201 45.103 96.7591C47.1815 95.8982 48.9581 94.4402 50.208 92.5696C51.4579 90.699 52.125 88.4998 52.125 86.25V40.75C52.125 38.5002 51.4579 36.301 50.208 34.4304C48.9581 32.5598 47.1815 31.1018 45.103 30.2409C43.0245 29.3799 40.7374 29.1547 38.5309 29.5936C36.3243 30.0325 34.2975 31.1158 32.7067 32.7067C31.1158 34.2975 30.0325 36.3243 29.5936 38.5309C29.1547 40.7374 29.3799 43.0245 30.2409 45.103C31.1018 47.1815 32.5598 48.9581 34.4304 50.208C36.301 51.4579 38.5002 52.125 40.75 52.125H86.25C88.4998 52.125 90.699 51.4579 92.5696 50.208C94.4402 48.9581 95.8982 47.1815 96.7591 45.103C97.6201 43.0245 97.8453 40.7374 97.4064 38.5309C96.9675 36.3243 95.8842 34.2975 94.2934 32.7067C92.7025 31.1158 90.6757 30.0325 88.4692 29.5936C86.2626 29.1547 83.9755 29.3799 81.897 30.2409C79.8185 31.1018 78.0419 32.5598 76.792 34.4304C75.5421 36.301 74.875 38.5002 74.875 40.75Z" stroke="white" stroke-width="7.58333" stroke-linecap="round" stroke-linejoin="round"/>
</g>
<defs>
<linearGradient id="paint0_linear_201_10" x1="110" y1="5" x2="11.5" y2="116.5" gradientUnits="userSpaceOnUse">
<stop stop-color="#2B3C4E"/>
<stop offset="0.5" stop-color="#10092B"/>
<stop offset="1" stop-color="#171719"/>
</linearGradient>
<clipPath id="clip0_201_10">
<rect width="128" height="128" fill="white"/>
</clipPath>
</defs>
</svg>
